<svg width="1018" height="1201" viewBox="0 0 1018 1201" fill="none" xmlns="http://www.w3.org/2000/svg">
<path d="M232 844.145C232 809.645 346 582.645 346 582.645L435.5 823.145C435.5 823.145 482.5 948.145 518.5 1012.14C531.956 1036.07 607.5 1132.14 672 1164.14C736.5 1196.14 776.998 1200.87 822.5 1200.64C888.016 1200.32 938.5 1177.64 938.5 1177.64C938.5 1177.64 899.131 1191.68 838.5 1164.14C813.552 1152.81 776 1127.64 752 1101.64C698.239 1054.58 629.975 933.407 605.5 876.645C550.639 749.414 493.551 588.851 452 500.145C428.539 450.058 399.803 397.648 393.5 388.645C346.487 305.936 263.459 284.83 213.5 289.645C178.189 293.047 134 300.145 92.5 335.645C92.5 335.645 108.052 333.287 134 330.648C222.5 321.645 295 451.648 299 465.648C303 479.648 114 870.645 114 870.645C90.7617 897.536 87.3838 916.126 0 919.648V936.145H302V919.648C246.195 905.148 232 878.645 232 844.145Z" fill="url(#paint0_radial_221_50)" fill-opacity="0.9"/>
<path d="M1017.5 986.5H987L965 981.5L942.5 971L923 957.5L907.5 939.5L692.5 473L475.5 0L351 272L366 278.5L382.5 288.5L397.5 299.5L411.5 312.5L432 332.5L449 355.5L472 390L519 487.5L597 694L630 777.5L667 861L707.5 937L731 975.5L751 1005H1017.5V986.5Z" fill="url(#paint1_radial_221_50)"/>
<defs>
<radialGradient id="paint0_radial_221_50" cx="0" cy="0" r="1" gradientUnits="userSpaceOnUse" gradientTransform="translate(380.5 766.5) rotate(78.4467) scale(443.131 456.181)">
<stop offset="0.0802418" stop-color="#113E21" stop-opacity="0.92"/>
<stop offset="0.850589" stop-color="#113E21"/>
</radialGradient>
<radialGradient id="paint1_radial_221_50" cx="0" cy="0" r="1" gradientUnits="userSpaceOnUse" gradientTransform="translate(543 586.5) rotate(62.9067) scale(533.548 353.841)">
<stop stop-color="#B38B59" stop-opacity="0.6"/>
<stop offset="0.46864" stop-color="#B38B59" stop-opacity="0.96"/>
<stop offset="0.809172" stop-color="#B38B59"/>
</radialGradient>
</defs>
</svg>
