<svg width="28" height="28" viewBox="0 0 28 28" fill="none" xmlns="http://www.w3.org/2000/svg">
<path d="M16.1179 5.08306L15.8462 4.43077C15.1624 2.78974 12.8376 2.78975 12.1538 4.43077L11.8821 5.08306C11.4459 6.12989 10.2275 6.60499 9.19779 6.12975L8.42892 5.77489C6.74063 4.99568 4.99568 6.74063 5.77489 8.42892L6.12975 9.19779C6.60499 10.2275 6.12989 11.4459 5.08306 11.8821L4.43077 12.1538C2.78974 12.8376 2.78975 15.1624 4.43077 15.8462L5.08306 16.1179C6.12989 16.5541 6.60499 17.7725 6.12975 18.8022L5.77489 19.5711C4.99568 21.2594 6.74063 23.0043 8.42892 22.2251L9.19779 21.8703C10.2275 21.395 11.4459 21.8701 11.8821 22.9169L12.1538 23.5692C12.8376 25.2103 15.1624 25.2103 15.8462 23.5692L16.1179 22.9169C16.5541 21.8701 17.7725 21.395 18.8022 21.8703L19.5711 22.2251C21.2594 23.0043 23.0043 21.2594 22.2251 19.5711L21.8703 18.8022C21.395 17.7725 21.8701 16.5541 22.9169 16.1179L23.5692 15.8462C25.2103 15.1624 25.2103 12.8376 23.5692 12.1538L22.9169 11.8821C21.8701 11.4459 21.395 10.2275 21.8703 9.19779L22.2251 8.42892C23.0043 6.74063 21.2594 4.99568 19.5711 5.77489L18.8022 6.12975C17.7725 6.60499 16.5541 6.12989 16.1179 5.08306Z" stroke="#113E21" stroke-width="2" stroke-linecap="round" stroke-linejoin="round"/>
<path d="M17.5 14C17.5 15.933 15.933 17.5 14 17.5C12.067 17.5 10.5 15.933 10.5 14C10.5 12.067 12.067 10.5 14 10.5C15.933 10.5 17.5 12.067 17.5 14Z" stroke="#113E21" stroke-width="2"/>
</svg>
